<?xml version="1.0" encoding="UTF-8"?>
<svg version="1.1" xmlns="http://www.w3.org/2000/svg" width="96" height="96">
<path d="M0 0 C1.65148544 0.0001133 1.65148544 0.0001133 3.33633423 0.00022888 C4.52906952 0.00539017 5.72180481 0.01055145 6.95068359 0.01586914 C8.16863617 0.01728409 9.38658875 0.01869904 10.64144897 0.02015686 C14.54403099 0.025769 18.44655632 0.0383236 22.34912109 0.05102539 C24.98974527 0.05603882 27.63037034 0.060602 30.27099609 0.06469727 C36.75539054 0.07574238 43.23975177 0.09249237 49.72412109 0.11352539 C49.74724555 9.87503527 49.76503671 19.63653869 49.77593327 29.39807034 C49.78116187 33.93026634 49.7882591 38.46244366 49.79956055 42.99462891 C49.81039024 47.36475369 49.8163981 51.73486047 49.81899834 56.10499763 C49.82085244 57.77603502 49.82447277 59.44707136 49.82985115 61.11810112 C49.83706268 63.4505009 49.83811199 65.78282532 49.83764648 68.11523438 C49.84124176 68.81294449 49.84483704 69.5106546 49.84854126 70.22950745 C49.83817326 74.99947323 49.83817326 74.99947323 48.72412109 76.11352539 C46.99122123 76.22285466 45.25388154 76.26260461 43.51757812 76.2746582 C42.40617462 76.28426575 41.29477112 76.29387329 40.14968872 76.30377197 C38.93932953 76.30802185 37.72897034 76.31227173 36.48193359 76.31665039 C35.24748505 76.32235046 34.0130365 76.32805054 32.74118042 76.33392334 C30.12336082 76.34339089 27.50552921 76.34991425 24.88769531 76.35375977 C22.19875585 76.35815399 19.51013557 76.37207712 16.82128906 76.39477539 C12.95807063 76.4251384 9.09525784 76.4357972 5.23193359 76.44165039 C4.02562286 76.45399719 2.81931213 76.46634399 1.57644653 76.47906494 C0.45873871 76.47606384 -0.65896912 76.47306274 -1.81054688 76.4699707 C-2.79570282 76.47361633 -3.78085876 76.47726196 -4.79586792 76.48101807 C-7.27587891 76.11352539 -7.27587891 76.11352539 -9.09320068 74.99197388 C-10.84245677 72.21362945 -10.65739008 69.96854607 -10.6640625 66.7019043 C-10.66931946 66.05600845 -10.67457642 65.41011261 -10.67999268 64.74464417 C-10.69319545 62.60954596 -10.6844523 60.47519369 -10.67431641 58.34008789 C-10.67633758 56.85419573 -10.67924937 55.36830454 -10.68301392 53.88241577 C-10.68743803 50.7669735 -10.6810055 47.65178923 -10.66699219 44.53637695 C-10.64992969 40.5493386 -10.6597218 36.5629074 -10.67770958 32.57589149 C-10.68857066 29.50631165 -10.68508997 26.43687475 -10.6773262 23.3672905 C-10.67532906 21.8977285 -10.6777664 20.42815341 -10.68476486 18.95860672 C-10.69241465 16.90003566 -10.68072624 14.84243469 -10.6640625 12.78393555 C-10.66167572 11.61383942 -10.65928894 10.44374329 -10.65682983 9.2381897 C-10.23514462 5.77941158 -9.34693861 3.88953428 -7.27587891 1.11352539 C-4.70454432 -0.1721419 -2.8787079 -0.00657239 0 0 Z " fill="#9EA7DA" transform="translate(28.27587890625,9.886474609375)"/>
<path d="M0 0 C5.87529418 3.25573627 8.7563121 8.2001242 11.6875 14.0625 C12.65129189 21.99313043 11.58583987 28.62146458 6.6875 35.0625 C0.49086335 40.40180864 -5.17456075 42.56199199 -13.32421875 42.46484375 C-19.31129072 41.65874125 -24.19721971 38.64460077 -28.01171875 33.98828125 C-32.15807937 27.56082826 -33.31783754 21.66723148 -32.3125 14.0625 C-29.79809634 7.10565192 -25.53391126 2.49451327 -19.01953125 -0.93359375 C-12.39126399 -3.39169575 -6.43056102 -2.75733201 0 0 Z " fill="#2E66F8" transform="translate(58.3125,21.9375)"/>
<path d="M0 0 C0.86825912 0.00222061 1.73651825 0.00444122 2.63108826 0.00672913 C3.61202957 0.00680466 4.59297089 0.00688019 5.6036377 0.00695801 C6.6702916 0.01211929 7.7369455 0.01728058 8.83592224 0.02259827 C9.92211349 0.02401321 11.00830475 0.02542816 12.12741089 0.02688599 C15.61230674 0.03250403 19.09713941 0.04505959 22.58201599 0.05775452 C24.93813486 0.06276719 27.29425473 0.0673305 29.65037537 0.07142639 C35.44011342 0.08247933 41.22980398 0.09975605 47.01951599 0.12025452 C47.01951599 3.42025452 47.01951599 6.72025452 47.01951599 10.12025452 C30.84951599 10.12025452 14.67951599 10.12025452 -1.98048401 10.12025452 C-3.47154858 7.13812538 -3.09989868 4.40415794 -2.98048401 1.12025452 C-1.98048401 0.12025452 -1.98048401 0.12025452 0 0 Z " fill="#FEDFB2" transform="translate(24.980484008789063,71.87974548339844)"/>
<path d="M0 0 C6.5978803 6.25062344 6.5978803 6.25062344 7.3359375 11.296875 C7.4300641 17.20802559 6.77690032 22.2439033 3 27 C0.859375 28.21875 0.859375 28.21875 -1 29 C-2.25664978 26.09399739 -3 24.20395416 -3 21 C-4.65 21 -6.3 21 -8 21 C-8.83139386 18.62761499 -9.14379438 17.40675537 -8.29296875 15 C-7.92816406 14.34 -7.56335937 13.68 -7.1875 13 C-6.83042969 12.34 -6.47335938 11.68 -6.10546875 11 C-5.74066406 10.34 -5.37585937 9.68 -5 9 C-4.48759766 7.97132812 -4.48759766 7.97132812 -3.96484375 6.921875 C-2.76688392 4.53565541 -1.39176368 2.27743148 0 0 Z " fill="#A7E30B" transform="translate(59,28)"/>
<path d="M0 0 C0.33 0.66 0.66 1.32 1 2 C-0.65 2.33 -2.3 2.66 -4 3 C-4.33 4.32 -4.66 5.64 -5 7 C-4.01 6.34 -3.02 5.68 -2 5 C0.6875 5.375 0.6875 5.375 3 6 C3 6.99 3 7.98 3 9 C1.576875 9.61875 1.576875 9.61875 0.125 10.25 C-3.00716624 12.0040131 -3.86500606 12.70851757 -5 16 C-6.32 15.34 -7.64 14.68 -9 14 C-7.89290509 16.06295292 -7.89290509 16.06295292 -6 18 C-4.01178687 18.39764263 -2.01055661 18.73775349 0 19 C0.33 19.66 0.66 20.32 1 21 C3.01669827 22.13350534 3.01669827 22.13350534 5 23 C2.89285714 28.99725275 2.89285714 28.99725275 0 31 C-2.015625 30.8671875 -2.015625 30.8671875 -4 30 C-4.8359375 27.890625 -4.8359375 27.890625 -5.375 25.25 C-6.32710501 21.50008922 -6.98473789 19.54018231 -10.1875 17.3125 C-13 15 -13 15 -13.625 11.625 C-12.85760679 7.17411937 -11.53282821 4.72474736 -9 1 C-6.04335481 -0.4783226 -3.25770263 -0.06032783 0 0 Z " fill="#A7E30B" transform="translate(43,29)"/>
<path d="M0 0 C16.17 0 32.34 0 49 0 C49 1.32 49 2.64 49 4 C32.5 4 16 4 -1 4 C-0.67 2.68 -0.34 1.36 0 0 Z " fill="#DFB990" transform="translate(23,72)"/>
<path d="M0 0 C0.02685412 2.31243792 0.04632841 4.6249627 0.0625 6.9375 C0.07410156 8.22527344 0.08570312 9.51304688 0.09765625 10.83984375 C0 14 0 14 -1 15 C-2.65 15 -4.3 15 -6 15 C-6 10.38 -6 5.76 -6 1 C-1 0 -1 0 0 0 Z " fill="#9575CD" transform="translate(78,71)"/>
<path d="M0 0 C2.64 0.33 5.28 0.66 8 1 C7.3125 3.375 7.3125 3.375 6 6 C3.375 7.3125 3.375 7.3125 1 8 C0.67 5.36 0.34 2.72 0 0 Z " fill="#9BD723" transform="translate(46,24)"/>
<path d="M0 0 C0 0.99 0 1.98 0 3 C-3.33333333 6 -3.33333333 6 -6 6 C-5.67 4.35 -5.34 2.7 -5 1 C-3.35 0.67 -1.7 0.34 0 0 Z " fill="#3C75D9" transform="translate(44,30)"/>
</svg>
